<?xml version="1.0"?>
<svg version="1.1" xmlns="http://www.w3.org/2000/svg" width="400px" height="200px" style="border: dashed 2px #aaa"><path fill="#" d="M119.3427734375,124.4384765625q0-0.146484375,0.09765625-1.03759765625t0.25634765625-2.1728515625t0.35400390625-2.7587890625t0.341796875-2.79541015625t0.25634765625-2.3193359375t0.10986328125-1.3427734375q-0.1953125-0.09765625-0.47607421875-0.28076171875t-0.28076171875-0.42724609375q0-0.341796875,0.32958984375-0.54931640625t0.57373046875-0.30517578125q0.09765625-1.2451171875,0.244140625-3.466796875t0.45166015625-4.79736328125t0.8544921875-5.224609375t1.45263671875-4.8095703125t2.1728515625-3.52783203125t3.125-1.3671875t3.076171875,1.171875t1.98974609375,3.0517578125t1.171875,4.1748046875t0.6103515625,4.5654296875t0.25634765625,4.248046875t0.09765625,3.173828125q0.048828125,0.7568359375,0.3662109375,1.01318359375t0.69580078125,0.35400390625t0.68359375,0.2197265625t0.30517578125,0.6103515625q0,0.5615234375-0.68359375,0.78125t-1.07421875,0.2685546875q0.244140625,3.0517578125,0.67138671875,6.005859375t1.13525390625,5.95703125q0.09765625,0.5615234375,0.2685546875,1.13525390625t0.1708984375,1.11083984375q0,0.390625-0.2685546875,0.64697265625t-0.69580078125,0.40283203125t-0.8544921875,0.1953125t-0.72021484375,0.048828125q-1.0986328125,0-1.85546875-0.4150390625t-1.0009765625-1.5869140625q-0.6591796875-3.1494140625-1.2939453125-6.6162109375q-0.537109375-3.0029296875-0.537109375-5.8349609375q0-0.439453125,0.0244140625-0.87890625q-2.05078125,0-4.1259765625,0.09765625t-3.9794921875,0.732421875q-0.048828125,0.6591796875-0.244140625,2.490234375t-0.439453125,3.9306640625t-0.50048828125,4.01611328125t-0.30517578125,2.72216796875q-0.048828125,0.341796875-0.50048828125,0.64697265625t-0.9765625,0.32958984375t-0.927734375-0.32958984375t-0.40283203125-1.25732421875z M123.908203125,109.6435546875q1.904296875-0.439453125,3.82080078125-0.5126953125t3.86962890625-0.1708984375q-0.09765625-0.6103515625-0.048828125-1.25732421875t0.048828125-1.30615234375q0-1.4404296875-0.0732421875-3.3447265625t-0.2197265625-3.857421875t-0.37841796875-3.84521484375t-0.52490234375-3.369140625t-0.62255859375-2.35595703125t-0.72021484375-0.87890625q-0.7568359375,0.048828125-1.42822265625,1.30615234375t-1.220703125,3.1982421875t-1.0009765625,4.345703125t-0.7568359375,4.69970703125t-0.50048828125,4.2724609375t-0.244140625,3.076171875z M143.96850585938,116.015625l0-0.7080078125q0-0.87890625,0.048828125-1.66015625q0.048828125-1.0986328125,0.048828125-1.806640625q0-0.390625,0.048828125-0.89111328125t0.244140625-0.79345703125q0.244140625-0.244140625,0.57373046875-0.50048828125t0.72021484375-0.25634765625q1.2451171875,0,1.953125,0.28076171875t0.7568359375,1.15966796875l0.09765625,0.7568359375q0.439453125-1.0498046875,1.171875-2.60009765625t1.69677734375-2.9541015625t2.1728515625-2.392578125t2.55126953125-0.98876953125q1.2451171875,0,2.05078125,1.171875t1.28173828125,2.99072265625t0.67138671875,4.052734375t0.2685546875,4.38232421875t0.09765625,3.91845703125t0.1708984375,2.67333984375q0.09765625,0.7568359375,0.32958984375,1.59912109375t0.23193359375,1.55029296875q0,0.1953125-0.28076171875,0.37841796875t-0.59814453125,0.30517578125t-0.64697265625,0.1953125t-0.47607421875,0.0732421875q-0.9521484375,0-1.35498046875-1.42822265625t-0.50048828125-3.57666015625t-0.09765625-4.65087890625t-0.1708984375-4.65087890625t-0.69580078125-3.57666015625t-1.67236328125-1.47705078125q-1.0498046875,0-2.1728515625,1.35498046875t-1.9287109375,3.60107421875q-0.78125,2.24609375-1.07421875,5.1025390625q-0.09765625,0.9033203125-0.09765625,1.806640625q0,1.9775390625,0.4150390625,3.955078125q0.048828125,0.341796875-0.28076171875,0.5126953125t-0.81787109375,0.2685546875t-0.98876953125,0.1220703125t-0.76904296875,0.0244140625q-0.9521484375,0-1.52587890625-0.67138671875t-0.89111328125-1.72119140625t-0.42724609375-2.35595703125t-0.13427734375-2.57568359375z M166.15283203125,110.44921875q0-0.7080078125,0.40283203125-0.927734375t1.01318359375-0.2197265625q1.0009765625,0,1.52587890625,0.37841796875t0.52490234375,1.33056640625q0,1.1474609375,0.1708984375,2.86865234375t0.50048828125,3.3447265625t0.78125,2.79541015625t0.93994140625,1.171875q0.9033203125,0,1.59912109375-1.3916015625t1.220703125-3.41796875t0.9033203125-4.35791015625t0.52490234375-4.16259765625q0.09765625-1.0009765625,0.47607421875-1.45263671875t1.37939453125-0.45166015625q1.1474609375,0,1.67236328125,0.9521484375t0.67138671875,2.34375q0.1220703125,1.1962890625,0.1220703125,2.490234375l0,0.4150390625l0,0.9765625q0,0.927734375,0.0244140625,1.66015625l0.7080078125,14.9658203125l0.09765625,2.490234375q0.048828125,0.341796875,0.0732421875,0.64697265625t0.0244140625,0.64697265625q0,1.3916015625-0.59814453125,1.79443359375t-1.94091796875,0.40283203125q-0.29296875,0-0.74462890625-0.048828125t-0.87890625-0.1953125t-0.732421875-0.40283203125t-0.30517578125-0.64697265625l0.09765625-0.244140625q0.1220703125-1.46484375,0.1220703125-3.076171875l0-0.5126953125q-0.0244140625-1.904296875-0.1220703125-3.857421875t-0.2197265625-3.90625t-0.1220703125-3.759765625q-0.341796875,0.7568359375-0.79345703125,1.5625t-1.0498046875,1.45263671875t-1.35498046875,1.07421875t-1.708984375,0.42724609375q-1.3916015625,0-2.294921875-0.732421875t-1.40380859375-1.904296875t-0.72021484375-2.62451171875t-0.29296875-2.9052734375t-0.09765625-2.77099609375t-0.1953125-2.2216796875z M196.01953125,115.4052734375q0-1.7578125,0.45166015625-3.52783203125t1.40380859375-3.173828125t2.42919921875-2.28271484375t3.47900390625-0.87890625q0.8544921875,0,1.8798828125,0.20751953125t1.89208984375,0.6591796875t1.46484375,1.171875t0.59814453125,1.77001953125q0,0.6591796875-0.341796875,0.87890625t-0.9033203125,0.2197265625l-0.1708984375-0.244140625t-0.47607421875-0.62255859375t-0.64697265625-0.8056640625t-0.6591796875-0.72021484375q-1.0009765625-1.0009765625-1.8798828125-1.07421875l-0.1953125,0q-0.732421875,0-1.3671875,0.439453125q-0.7080078125,0.537109375-1.25732421875,1.513671875t-0.91552734375,2.0751953125t-0.57373046875,2.2216796875t-0.20751953125,1.85546875q0,1.0009765625,0.23193359375,2.28271484375t0.78125,2.42919921875t1.3916015625,1.9287109375t2.16064453125,0.78125q1.1962890625,0,2.1728515625-0.5859375t1.86767578125-1.30615234375t1.74560546875-1.2939453125t1.7578125-0.57373046875q0.390625,0,0.79345703125,0.09765625t0.40283203125,0.5126953125l0,0.146484375q-0.439453125,1.1474609375-1.4892578125,2.0263671875t-2.35595703125,1.52587890625t-2.7099609375,0.96435546875t-2.50244140625,0.3173828125q-2.05078125,0-3.60107421875-0.67138671875t-2.57568359375-1.84326171875t-1.55029296875-2.81982421875t-0.52490234375-3.60107421875z M217.32495117188,118.5546875l0-2.294921875q0-1.2451171875,0.06103515625-3.52783203125t0.15869140625-5.0048828125t0.2685546875-5.67626953125t0.390625-5.57861328125t0.52490234375-4.69970703125t0.69580078125-3.076171875q0.244140625-0.5615234375,0.8056640625-0.7080078125t1.0986328125-0.146484375q0.8544921875,0,1.50146484375,0.37841796875t0.64697265625,1.37939453125l-0.439453125,0.48828125q-0.8544921875,5.6396484375-1.0986328125,11.328125t-0.341796875,11.376953125q0.6103515625-0.9521484375,1.37939453125-1.86767578125t1.708984375-1.62353515625t2.0263671875-1.13525390625t2.38037109375-0.42724609375q1.66015625,0,2.74658203125,1.0009765625t1.79443359375,2.60009765625t1.0498046875,3.57666015625t0.52490234375,3.955078125t0.25634765625,3.74755859375t0.2197265625,2.94189453125q-0.4638671875,0.634765625-1.3671875,0.634765625l-0.0732421875,0q-0.390625,0-0.8544921875-0.09765625t-0.6103515625-0.48828125l0.048828125,0.048828125q-0.341796875-0.7568359375-0.4638671875-2.18505859375t-0.1953125-3.1494140625t-0.25634765625-3.52783203125t-0.54931640625-3.271484375t-1.07421875-2.4169921875t-1.904296875-1.0009765625l-0.146484375,0q-1.4404296875,0-2.4169921875,0.87890625q-1.025390625,0.927734375-1.66015625,2.44140625t-0.9765625,3.369140625t-0.52490234375,3.57666015625t-0.28076171875,3.125t-0.244140625,2.06298828125q-0.146484375,0.5615234375-0.86669921875,0.74462890625t-1.23291015625,0.18310546875q-1.1962890625,0-1.953125-0.68359375q-0.5615234375-1.3427734375-0.6591796875-3.3447265625t-0.09765625-3.90625z M240.68115234375,115.8935546875q0-1.66015625,0.45166015625-3.1982421875t1.35498046875-2.74658203125t2.25830078125-1.9287109375t3.13720703125-0.72021484375q1.0986328125,0,2.42919921875,0.32958984375t2.50244140625,0.9765625t1.953125,1.64794921875t0.78125,2.294921875q0,0.6103515625-0.20751953125,0.927734375t-0.84228515625,0.3173828125l-0.2685546875-0.048828125q0.7080078125,1.904296875,1.220703125,3.90625t1.0009765625,4.00390625q0.1953125,0.390625,0.29296875,0.69580078125t0.09765625,0.59814453125q0,0.390625-0.2197265625,0.64697265625t-0.57373046875,0.37841796875t-0.732421875,0.1708984375t-0.67138671875,0.048828125q-1.0498046875,0-1.57470703125-0.3662109375t-0.7568359375-1.0009765625t-0.28076171875-1.42822265625t-0.1953125-1.59912109375q-0.29296875,0.9521484375-0.76904296875,1.85546875t-1.123046875,1.62353515625t-1.52587890625,1.1474609375t-1.9775390625,0.42724609375q-1.611328125,0-2.7099609375-0.927734375t-1.77001953125-2.28271484375t-0.9765625-2.89306640625t-0.30517578125-2.8564453125z M244.14794921875,115.5517578125q0,0.9033203125,0.1220703125,1.904296875t0.40283203125,1.9775390625t0.72021484375,1.84326171875t1.0986328125,1.52587890625q1.1962890625-1.2939453125,1.77001953125-3.1494140625t1.025390625-3.57666015625t1.025390625-2.9541015625t1.77001953125-1.23291015625q0.7568359375,0,1.26953125,0.2685546875q-0.244140625-0.6103515625-0.8056640625-1.18408203125t-1.25732421875-1.0498046875t-1.4404296875-0.78125t-1.40380859375-0.30517578125q-0.1953125,0-0.45166015625,0.06103515625t-0.40283203125,0.01220703125q-1.0009765625,0.29296875-1.64794921875,1.01318359375t-1.0498046875,1.69677734375t-0.57373046875,2.001953125t-0.1708984375,1.9287109375z M260.83911132812,100.390625q0-0.341796875,0.732421875-0.5859375t1.66015625-0.40283203125t1.79443359375-0.23193359375t1.18408203125-0.1220703125q0-0.6591796875,0.048828125-1.33056640625t0.2685546875-1.1962890625t0.69580078125-0.84228515625t1.33056640625-0.3173828125q0.7080078125,0,1.07421875,0.1708984375t0.78125,0.7080078125q0.09765625,0.29296875,0.09765625,0.5615234375l0,0.81787109375t-0.048828125,0.84228515625q0.9033203125-0.09765625,1.79443359375-0.23193359375t1.79443359375-0.13427734375q0.6591796875,0,0.9033203125,0.0244140625t0.48828125,0.5859375q0.1953125,0.5615234375-0.47607421875,0.8544921875t-1.611328125,0.439453125t-1.86767578125,0.2197265625t-1.123046875,0.0732421875q-0.29296875,4.19921875-0.59814453125,8.3251953125t-0.30517578125,8.3740234375q0,1.904296875,0.1220703125,3.9306640625t0.68359375,3.8330078125q0.146484375,0.5615234375,0.48828125,1.0498046875t0.341796875,1.0498046875q0,0.341796875-0.2685546875,0.537109375t-0.64697265625,0.32958984375t-0.7568359375,0.15869140625t-0.62255859375,0.0244140625q-1.5380859375,0-2.34375-1.1474609375t-1.15966796875-2.74658203125t-0.37841796875-3.28369140625t-0.0244140625-2.734375q0-2.1484375,0.08544921875-4.39453125t0.20751953125-4.443359375t0.341796875-4.296875t0.5126953125-3.90625q-0.8544921875,0.09765625-1.67236328125,0.2197265625t-1.67236328125,0.1220703125q-0.1953125,0-0.52490234375-0.0244140625t-0.62255859375-0.1220703125t-0.50048828125-0.2685546875t-0.20751953125-0.48828125z"/><path fill="#" d=""/></svg>
